<?xml version="1.0" encoding="UTF-8" standalone="no"?>
<!-- Created with Inkscape (http://www.inkscape.org/) -->

<svg xmlns:dc="http://purl.org/dc/elements/1.1/" xmlns:cc="http://creativecommons.org/ns#" xmlns:rdf="http://www.w3.org/1999/02/22-rdf-syntax-ns#" xmlns:svg="http://www.w3.org/2000/svg" xmlns="http://www.w3.org/2000/svg" xmlns:xlink="http://www.w3.org/1999/xlink" xmlns:sodipodi="http://sodipodi.sourceforge.net/DTD/sodipodi-0.dtd" xmlns:inkscape="http://www.inkscape.org/namespaces/inkscape" width="460" height="380" id="svg2424" sodipodi:version="0.32" inkscape:version="0.48.4 r9939" version="1.0" sodipodi:docname="archlinux-taiwan-community-simpler_.svg" inkscape:output_extension="org.inkscape.output.svg.inkscape" inkscape:export-filename="/home/yhh/archlinux-tw/images/logo-tw.png" inkscape:export-xdpi="90" inkscape:export-ydpi="90">
  <defs id="defs2426">
    <inkscape:perspective sodipodi:type="inkscape:persp3d" inkscape:vp_x="0 : 137.5 : 1" inkscape:vp_y="0 : 1000 : 0" inkscape:vp_z="365 : 137.5 : 1" inkscape:persp3d-origin="182.5 : 91.666667 : 1" id="perspective72" />
    <linearGradient gradientUnits="userSpaceOnUse" id="path1082_2_" y2="129.3468" x2="112.49853" y1="6.1372099" x1="112.49854" gradientTransform="translate(287,-83)">
      <stop id="stop193" offset="0" style="stop-color:#ffffff;stop-opacity:0" />
      <stop id="stop195" offset="1" style="stop-color:#ffffff;stop-opacity:0.27450982;" />
      <midPointStop id="midPointStop197" style="stop-color:#FFFFFF" offset="0" />
      <midPointStop id="midPointStop199" style="stop-color:#FFFFFF" offset="0.5" />
      <midPointStop id="midPointStop201" style="stop-color:#000000" offset="1" />
    </linearGradient>
    <linearGradient id="linearGradient3388">
      <stop style="stop-color:#000000;stop-opacity:0;" offset="0" id="stop3390" />
      <stop style="stop-color:#000000;stop-opacity:0.37113401;" offset="1" id="stop3392" />
    </linearGradient>
    <linearGradient inkscape:collect="always" id="linearGradient4346">
      <stop style="stop-color:#00bdec;stop-opacity:1" offset="0" id="stop4348" />
      <stop style="stop-color:#40bfde;stop-opacity:1" offset="1" id="stop4350" />
    </linearGradient>
    <linearGradient inkscape:collect="always" xlink:href="#linearGradient4346" id="linearGradient4352" x1="400.6142" y1="634.15063" x2="616.48553" y2="666.97791" gradientUnits="userSpaceOnUse" />
    <linearGradient inkscape:collect="always" id="linearGradient5323">
      <stop style="stop-color:#6e6e6e;stop-opacity:1" offset="0" id="stop5325" />
      <stop style="stop-color:#4d4d4d;stop-opacity:1" offset="1" id="stop5327" />
    </linearGradient>
    <linearGradient inkscape:collect="always" xlink:href="#linearGradient5323" id="linearGradient5329" x1="291.83591" y1="238.08237" x2="650.81366" y2="348.96875" gradientUnits="userSpaceOnUse" />
    <linearGradient inkscape:collect="always" xlink:href="#linearGradient3388" id="linearGradient2231" gradientUnits="userSpaceOnUse" gradientTransform="matrix(0.6551957,0,0,0.6551957,-113.28394,148.38658)" x1="490.72305" y1="237.72447" x2="490.72305" y2="183.9644" />
    <linearGradient inkscape:collect="always" xlink:href="#path1082_2_" id="linearGradient2261" gradientUnits="userSpaceOnUse" gradientTransform="matrix(-0.6710118,0,0,0.6709741,706.10281,-117.5032)" x1="541.33502" y1="104.50665" x2="606.91248" y2="303.14029" />
    <linearGradient y2="666.97791" x2="616.48553" y1="634.15063" x1="400.6142" gradientUnits="userSpaceOnUse" id="linearGradient2493" xlink:href="#linearGradient4346" inkscape:collect="always" />
    <linearGradient gradientUnits="userSpaceOnUse" y2="666.97791" x2="616.48553" y1="634.15063" x1="400.6142" id="linearGradient2467" xlink:href="#linearGradient4346" inkscape:collect="always" />
    <linearGradient id="linearGradient2461">
      <stop id="stop2463" offset="0" style="stop-color:#26a7e8;stop-opacity:1;" />
      <stop id="stop2465" offset="1" style="stop-color:#3ab0ea;stop-opacity:1;" />
    </linearGradient>
    <linearGradient id="linearGradient2454">
      <stop id="stop2456" offset="0" style="stop-color:#000000;stop-opacity:0;" />
      <stop id="stop2458" offset="1" style="stop-color:#000000;stop-opacity:0.37113401;" />
    </linearGradient>
    <linearGradient y2="303.14029" x2="606.91248" y1="104.50665" x1="541.33502" gradientTransform="matrix(-0.3937741,0,0,0.393752,357.51969,122.00151)" gradientUnits="userSpaceOnUse" id="linearGradient2544" xlink:href="#path1082_2_" inkscape:collect="always" />
    <linearGradient gradientTransform="translate(287,-83)" x1="112.49854" y1="6.1372099" x2="112.49853" y2="129.3468" id="linearGradient2441" gradientUnits="userSpaceOnUse">
      <stop style="stop-color:#ffffff;stop-opacity:0" offset="0" id="stop2443" />
      <stop style="stop-color:#ffffff;stop-opacity:0.27450982;" offset="1" id="stop2445" />
      <midPointStop offset="0" style="stop-color:#FFFFFF" id="midPointStop2447" />
      <midPointStop offset="0.5" style="stop-color:#FFFFFF" id="midPointStop2449" />
      <midPointStop offset="1" style="stop-color:#000000" id="midPointStop2451" />
    </linearGradient>
    <linearGradient inkscape:collect="always" xlink:href="#linearGradient5323" id="linearGradient3885" gradientUnits="userSpaceOnUse" x1="291.83591" y1="238.08237" x2="650.81366" y2="348.96875" />
    <linearGradient inkscape:collect="always" xlink:href="#linearGradient4346" id="linearGradient3887" gradientUnits="userSpaceOnUse" x1="400.6142" y1="634.15063" x2="616.48553" y2="666.97791" />
    <linearGradient inkscape:collect="always" xlink:href="#linearGradient5323" id="linearGradient3909" gradientUnits="userSpaceOnUse" x1="291.83591" y1="238.08237" x2="650.81366" y2="348.96875" />
    <linearGradient inkscape:collect="always" xlink:href="#linearGradient4346" id="linearGradient3919" gradientUnits="userSpaceOnUse" x1="400.6142" y1="634.15063" x2="616.48553" y2="666.97791" />
    <linearGradient inkscape:collect="always" xlink:href="#linearGradient5323" id="linearGradient3970" gradientUnits="userSpaceOnUse" x1="291.83591" y1="238.08237" x2="650.81366" y2="348.96875" />
    <linearGradient inkscape:collect="always" xlink:href="#linearGradient5323" id="linearGradient3117" gradientUnits="userSpaceOnUse" x1="291.83591" y1="238.08237" x2="650.81366" y2="348.96875" />
    <linearGradient inkscape:collect="always" xlink:href="#path1082_2_" id="linearGradient3146" gradientUnits="userSpaceOnUse" gradientTransform="matrix(-0.6710118,0,0,0.6709741,901.93156,-101.60907)" x1="541.33502" y1="104.50665" x2="606.91248" y2="303.14029" />
    <linearGradient inkscape:collect="always" xlink:href="#linearGradient5323" id="linearGradient3148" gradientUnits="userSpaceOnUse" x1="291.83591" y1="238.08237" x2="650.81366" y2="348.96875" />
    <linearGradient inkscape:collect="always" xlink:href="#linearGradient5323" id="linearGradient3150" gradientUnits="userSpaceOnUse" x1="291.83591" y1="238.08237" x2="650.81366" y2="348.96875" />
    <linearGradient inkscape:collect="always" xlink:href="#linearGradient5323" id="linearGradient3152" gradientUnits="userSpaceOnUse" x1="291.83591" y1="238.08237" x2="650.81366" y2="348.96875" />
    <linearGradient inkscape:collect="always" xlink:href="#linearGradient5323" id="linearGradient3154" gradientUnits="userSpaceOnUse" x1="291.83591" y1="238.08237" x2="650.81366" y2="348.96875" />
    <linearGradient inkscape:collect="always" xlink:href="#linearGradient5323" id="linearGradient3156" gradientUnits="userSpaceOnUse" x1="291.83591" y1="238.08237" x2="650.81366" y2="348.96875" />
    <linearGradient inkscape:collect="always" xlink:href="#linearGradient3388" id="linearGradient3158" gradientUnits="userSpaceOnUse" gradientTransform="matrix(0.562301,0,0,0.562301,11.327323,145.9388)" x1="490.72305" y1="237.72447" x2="490.72305" y2="183.9644" />
    <linearGradient inkscape:collect="always" xlink:href="#path1082_2_" id="linearGradient3183" gradientUnits="userSpaceOnUse" gradientTransform="matrix(-0.6710118,0,0,0.6709741,901.93156,-101.60907)" x1="541.33502" y1="104.50665" x2="606.91248" y2="303.14029" />
    <linearGradient inkscape:collect="always" xlink:href="#linearGradient5323" id="linearGradient3193" gradientUnits="userSpaceOnUse" x1="291.83591" y1="238.08237" x2="650.81366" y2="348.96875" />
    <linearGradient inkscape:collect="always" xlink:href="#linearGradient3388" id="linearGradient3195" gradientUnits="userSpaceOnUse" gradientTransform="matrix(0.562301,0,0,0.562301,11.327323,145.9388)" x1="490.72305" y1="237.72447" x2="490.72305" y2="183.9644" />
    <linearGradient inkscape:collect="always" xlink:href="#linearGradient4346" id="linearGradient3934" x1="195.63412" y1="273.66235" x2="369.7825" y2="273.66235" gradientUnits="userSpaceOnUse" />
    <linearGradient inkscape:collect="always" xlink:href="#linearGradient4346-2" id="linearGradient3934-2" x1="195.63412" y1="273.66235" x2="369.7825" y2="273.66235" gradientUnits="userSpaceOnUse" />
    <linearGradient inkscape:collect="always" id="linearGradient4346-2">
      <stop style="stop-color:#00bdec;stop-opacity:1" offset="0" id="stop4348-0" />
      <stop style="stop-color:#40bfde;stop-opacity:1" offset="1" id="stop4350-0" />
    </linearGradient>
    <linearGradient gradientTransform="matrix(-1,0,0,-1,742.82273,547.32469)" y2="273.66235" x2="369.7825" y1="273.66235" x1="195.63412" gradientUnits="userSpaceOnUse" id="linearGradient3951" xlink:href="#linearGradient4346-2" inkscape:collect="always" />
    <linearGradient inkscape:collect="always" xlink:href="#linearGradient5323" id="linearGradient3857" x1="615.44641" y1="196.33673" x2="614.89465" y2="245.03239" gradientUnits="userSpaceOnUse" gradientTransform="translate(-10.062112,-1.1055824)" />
    <linearGradient inkscape:collect="always" xlink:href="#linearGradient5323-7" id="linearGradient3857-3" x1="615.44641" y1="196.33673" x2="614.89465" y2="245.03239" gradientUnits="userSpaceOnUse" gradientTransform="translate(-10.062112,-1.1055824)" />
    <linearGradient inkscape:collect="always" id="linearGradient5323-7">
      <stop style="stop-color:#6e6e6e;stop-opacity:1" offset="0" id="stop5325-2" />
      <stop style="stop-color:#4d4d4d;stop-opacity:1" offset="1" id="stop5327-0" />
    </linearGradient>
    <linearGradient inkscape:collect="always" xlink:href="#linearGradient5323-7" id="linearGradient3873" x1="615.44641" y1="196.33673" x2="614.89465" y2="245.03239" gradientUnits="userSpaceOnUse" gradientTransform="translate(-10.062112,-1.1055824)" />
    <linearGradient y2="245.03239" x2="614.89465" y1="196.33673" x1="615.44641" gradientTransform="translate(-28.124434,-81.349618)" gradientUnits="userSpaceOnUse" id="linearGradient3883" xlink:href="#linearGradient5323-7" inkscape:collect="always" />
    <linearGradient inkscape:collect="always" xlink:href="#linearGradient5323-7" id="linearGradient3917" gradientUnits="userSpaceOnUse" gradientTransform="translate(-232.28648,-36.725232)" x1="615.44641" y1="196.33673" x2="614.89465" y2="245.03239" />
    <linearGradient inkscape:collect="always" xlink:href="#path1082_2_" id="linearGradient3943" gradientUnits="userSpaceOnUse" gradientTransform="matrix(-0.6710118,0,0,0.6709741,898.13596,-141.60907)" x1="541.33502" y1="104.50665" x2="606.91248" y2="303.14029" />
    <linearGradient inkscape:collect="always" xlink:href="#linearGradient5323" id="linearGradient3966" gradientUnits="userSpaceOnUse" x1="291.83591" y1="238.08237" x2="650.81366" y2="348.96875" />
    <linearGradient inkscape:collect="always" xlink:href="#linearGradient5323" id="linearGradient3968" gradientUnits="userSpaceOnUse" x1="291.83591" y1="238.08237" x2="650.81366" y2="348.96875" />
    <linearGradient inkscape:collect="always" xlink:href="#linearGradient5323" id="linearGradient3971" gradientUnits="userSpaceOnUse" x1="291.83591" y1="238.08237" x2="650.81366" y2="348.96875" />
    <linearGradient inkscape:collect="always" xlink:href="#linearGradient5323" id="linearGradient3973" gradientUnits="userSpaceOnUse" x1="291.83591" y1="238.08237" x2="650.81366" y2="348.96875" />
    <linearGradient inkscape:collect="always" xlink:href="#linearGradient5323" id="linearGradient3975" gradientUnits="userSpaceOnUse" x1="291.83591" y1="238.08237" x2="650.81366" y2="348.96875" />
    <linearGradient inkscape:collect="always" xlink:href="#linearGradient3388" id="linearGradient3977" gradientUnits="userSpaceOnUse" gradientTransform="matrix(0.562301,0,0,0.562301,7.531726,105.9388)" x1="490.72305" y1="237.72447" x2="490.72305" y2="183.9644" />
    <linearGradient inkscape:collect="always" xlink:href="#linearGradient5323" id="linearGradient3979" gradientUnits="userSpaceOnUse" gradientTransform="translate(-10.062112,-1.1055824)" x1="615.44641" y1="196.33673" x2="614.89465" y2="245.03239" />
    <linearGradient inkscape:collect="always" xlink:href="#linearGradient3388" id="linearGradient3981" gradientUnits="userSpaceOnUse" x1="597.66498" y1="208.48579" x2="597.14374" y2="245.41391" />
    <linearGradient inkscape:collect="always" xlink:href="#linearGradient5323" id="linearGradient5796" gradientUnits="userSpaceOnUse" x1="291.83591" y1="238.08237" x2="650.81366" y2="348.96875" />
    <linearGradient inkscape:collect="always" xlink:href="#linearGradient5323" id="linearGradient5798" gradientUnits="userSpaceOnUse" x1="291.83591" y1="238.08237" x2="650.81366" y2="348.96875" />
    <linearGradient inkscape:collect="always" xlink:href="#linearGradient5323" id="linearGradient5800" gradientUnits="userSpaceOnUse" x1="291.83591" y1="238.08237" x2="650.81366" y2="348.96875" />
    <linearGradient inkscape:collect="always" xlink:href="#linearGradient5323" id="linearGradient5802" gradientUnits="userSpaceOnUse" x1="291.83591" y1="238.08237" x2="650.81366" y2="348.96875" />
    <linearGradient inkscape:collect="always" xlink:href="#linearGradient5323" id="linearGradient5804" gradientUnits="userSpaceOnUse" x1="291.83591" y1="238.08237" x2="650.81366" y2="348.96875" />
    <linearGradient inkscape:collect="always" xlink:href="#linearGradient3388" id="linearGradient5806" gradientUnits="userSpaceOnUse" gradientTransform="matrix(0.562301,0,0,0.562301,7.531726,105.9388)" x1="490.72305" y1="237.72447" x2="490.72305" y2="183.9644" />
    <linearGradient inkscape:collect="always" xlink:href="#linearGradient5323" id="linearGradient5808" gradientUnits="userSpaceOnUse" gradientTransform="translate(-10.062112,-1.1055824)" x1="615.44641" y1="196.33673" x2="614.89465" y2="245.03239" />
    <linearGradient inkscape:collect="always" xlink:href="#linearGradient3388" id="linearGradient5810" gradientUnits="userSpaceOnUse" x1="597.66498" y1="208.48579" x2="597.14374" y2="245.41391" />
    <linearGradient inkscape:collect="always" xlink:href="#linearGradient3388" id="linearGradient5820" gradientUnits="userSpaceOnUse" gradientTransform="matrix(0.42923202,0,0,0.42923202,136.75476,161.18056)" x1="490.72305" y1="237.72447" x2="490.72305" y2="183.9644" />
    <linearGradient inkscape:collect="always" xlink:href="#linearGradient5323-8" id="linearGradient5808-5" gradientUnits="userSpaceOnUse" gradientTransform="translate(-10.062112,-1.1055824)" x1="615.44641" y1="196.33673" x2="614.89465" y2="245.03239" />
    <linearGradient inkscape:collect="always" id="linearGradient5323-8">
      <stop style="stop-color:#6e6e6e;stop-opacity:1" offset="0" id="stop5325-4" />
      <stop style="stop-color:#4d4d4d;stop-opacity:1" offset="1" id="stop5327-6" />
    </linearGradient>
    <linearGradient inkscape:collect="always" xlink:href="#linearGradient5323-8" id="linearGradient5847" gradientUnits="userSpaceOnUse" gradientTransform="translate(-10.062112,-1.1055824)" x1="615.44641" y1="196.33673" x2="614.89465" y2="245.03239" />
    <linearGradient inkscape:collect="always" xlink:href="#linearGradient3388-9" id="linearGradient5810-6" gradientUnits="userSpaceOnUse" x1="597.66498" y1="208.48579" x2="597.14374" y2="245.41391" />
    <linearGradient id="linearGradient3388-9">
      <stop style="stop-color:#000000;stop-opacity:0;" offset="0" id="stop3390-5" />
      <stop style="stop-color:#000000;stop-opacity:0.37113401;" offset="1" id="stop3392-0" />
    </linearGradient>
    <linearGradient y2="245.41391" x2="597.14374" y1="208.48579" x1="597.66498" gradientUnits="userSpaceOnUse" id="linearGradient5863" xlink:href="#linearGradient3388-9" inkscape:collect="always" />
  </defs>
  <sodipodi:namedview id="base" pagecolor="#ffffff" bordercolor="#666666" borderopacity="1.0" gridtolerance="10000" guidetolerance="10" objecttolerance="10" inkscape:pageopacity="0.0" inkscape:pageshadow="2" inkscape:zoom="0.93" inkscape:cx="457.89863" inkscape:cy="85.773311" inkscape:document-units="px" inkscape:current-layer="layer1" inkscape:window-width="1366" inkscape:window-height="725" inkscape:window-x="-1" inkscape:window-y="-10" showguides="true" inkscape:guide-bbox="true" width="365px" height="275px" showgrid="false" inkscape:window-maximized="1" inkscape:snap-smooth-nodes="true" />
  <metadata id="metadata2429">
    <rdf:RDF>
      <cc:Work rdf:about="">
        <dc:format>image/svg+xml</dc:format>
        <dc:type rdf:resource="http://purl.org/dc/dcmitype/StillImage" />
        <dc:title></dc:title>
      </cc:Work>
    </rdf:RDF>
  </metadata>
  <g inkscape:label="Layer 1" inkscape:groupmode="layer" id="layer1" transform="translate(-195.82871,51.105867)">
    <g id="g3936" transform="matrix(1.2110146,0,0,1.2110146,-1.9396337,5.0862633)">
      <path inkscape:connector-curvature="0" style="fill:#1793d1;fill-opacity:1;fill-rule:evenodd;stroke:none" d="m 377.26053,-24.103849 c -8.76358,21.48594 -14.05542,35.559008 -23.81251,56.406249 5.98233,6.34126 13.32499,13.69092 25.25001,22.03125 -12.82058,-5.27559 -21.55832,-10.53499 -28.09376,-16.03125 -12.4872,26.05648 -32.07985,63.13344 -71.78125,134.46876 31.19835,-18.01136 55.3982,-29.10421 77.9375,-33.34375 -0.96715,-4.16178 -1.5061,-8.67823 -1.46875,-13.375 l 0.0312,-0.96875 c 0.49515,-19.99155 10.89945,-35.38759 23.21876,-34.34375 12.31931,1.04382 21.90137,18.13345 21.40624,38.125 -0.0931,3.75972 -0.50934,7.36393 -1.24999,10.71875 22.28963,4.36588 46.23183,15.42448 77,33.1875 -6.06956,-11.1745 -11.51389,-21.21901 -16.6875,-30.8125 -8.14928,-6.31625 -16.63014,-14.53818 -33.96875,-23.4375 11.91757,3.09669 20.47384,6.66278 27.125,10.65625 C 399.56517,31.24237 395.2988,18.22683 377.26053,-24.103849 z" id="path2518" />
      <path inkscape:connector-curvature="0" sodipodi:nodetypes="ccc" id="path2522" d="M 432.68029,92.91624 C 390.00646,34.99555 380.11512,-11.68676 377.60968,-22.831874 400.37314,29.67293 400.21766,30.3168 432.68029,92.91624 z" style="fill:#ffffff;fill-opacity:0.16568047;fill-rule:evenodd;stroke:none" />
      <text id="text2638" y="158.00311" x="471.72104" style="font-size:6.10690928px;font-style:normal;font-weight:normal;fill:#87cdde;fill-opacity:1;stroke:none;font-family:DejaVu Sans Mono" xml:space="preserve"><tspan y="158.00311" x="471.72104" id="tspan2640" sodipodi:role="line">TM</tspan></text>
      <path inkscape:connector-curvature="0" style="fill:url(#linearGradient3943);fill-opacity:1;fill-rule:evenodd;stroke:none" d="m 377.62687,-23.230869 c -1.08977,2.679089 -2.14914,5.275932 -3.15625,7.750003 -1.12033,2.752098 -2.22239,5.392953 -3.28125,7.96875 -1.05878,2.575833 -2.0847,5.081382 -3.12501,7.562501 -1.04036,2.481234 -2.09136,4.938071 -3.15625,7.40625 -1.06482,2.468083 -2.14892,4.963411 -3.28125,7.5 -1.13233,2.536675 -2.28851,5.125735 -3.53125,7.812495 -1.24282,2.68679 -2.57262,5.45661 -3.96874,8.375 -0.18859,0.3942 -0.40192,0.85074 -0.59376,1.25 5.96626,6.31989 13.29003,13.6383 25.15625,21.93751 -12.79917,-5.26679 -21.53063,-10.51371 -28.0625,-16 -0.33956,0.69321 -0.61891,1.32139 -0.96875,2.03125 -0.75164,1.52522 -1.6038,3.23544 -2.40624,4.84375 -6.15917,12.55584 -14.01982,27.76447 -24.62501,47.59375 24.96756,-14.0677 51.92484,-34.34239 100.84375,-16.875 -2.45285,-4.64566 -4.72595,-8.99768 -6.84374,-13.09375 -2.11777,-4.0962 -4.07926,-7.93515 -5.90625,-11.5625 -1.82685,-3.62729 -3.51362,-7.04191 -5.09375,-10.28125 -1.58012,-3.23928 -3.06008,-6.3177 -4.4375,-9.25001 -1.37751,-2.93224 -2.65612,-5.73143 -3.875,-8.4375 -1.21898,-2.70603 -2.36416,-5.31437 -3.46876,-7.874995 -1.1047,-2.560756 -2.18443,-5.06648 -3.21875,-7.562501 -1.03439,-2.496093 -2.0231,-4.987587 -3.03125,-7.5 -0.34629,-0.862813 -0.71582,-1.753864 -1.0625,-2.625 -2.7736,-6.50749 -5.61686,-13.241566 -8.90624,-20.968753 z" id="path2520" />
    </g>
    <flowRoot xml:space="preserve" id="flowRoot3101" style="font-size:16px;font-style:normal;font-variant:normal;font-weight:normal;font-stretch:normal;line-height:125%;letter-spacing:0px;word-spacing:0px;fill:#000000;fill-opacity:1;stroke:none;font-family:'王漢宗中行書繁';-inkscape-font-specification:'王漢宗中行書繁'"><flowRegion id="flowRegion3103"><rect id="rect3105" width="417.42426" height="79.545456" x="-9.848485" y="289.09091" /></flowRegion><flowPara id="flowPara3107" /></flowRoot>    <g id="g2498" transform="matrix(0.36548755,0,0,0.36548755,177.97941,110.02978)" style="fill:url(#linearGradient5804);fill-opacity:1">
      <path id="path2500" d="m 339.96875,309.09375 c -14.47141,-0.0239 -26.4812,2.94367 -31.125,4.5625 l -4.78125,25.8125 c -0.0116,0.0951 23.79543,-6.34855 34.28125,-5.96875 17.36158,0.62381 18.95948,6.63541 18.65625,14.75 0.29595,0.47462 -4.47933,-7.33192 -19.5,-7.59375 -18.94961,-0.32687 -45.69284,6.70947 -45.65625,35.3125 -0.51086,32.17412 24.03361,41.63882 40.75,41.8125 15.02821,-0.27364 22.0777,-5.69136 25.9375,-8.59375 5.07124,-5.30236 10.87308,-10.63447 16.40625,-17.03125 -5.23567,9.51278 -9.77472,16.0898 -14.5,21.125 l 0,4.25 22.84375,-3.84375 0.15625,-62.09375 c -0.23141,-8.78839 5.04123,-42.41827 -43.46875,-42.5 z m -3.28125,54.0625 c 9.46889,0.12995 20.32788,4.79708 20.34375,16.03125 0.049,10.21821 -12.80005,15.71183 -21.15625,15.625 -8.35976,-0.0868 -19.45093,-6.56982 -19.5,-16.53125 0.16016,-8.90444 10.45953,-15.35418 20.3125,-15.125 z" style="fill:url(#linearGradient5796);fill-opacity:1;fill-rule:evenodd;stroke:none" inkscape:connector-curvature="0" />
      <path style="fill:url(#linearGradient5798);fill-opacity:1;fill-rule:evenodd;stroke:none" d="m 398.50106,314.83145 -0.15505,102.82693 26.61213,-5.12724 0.0449,-58.30157 c 0.006,-8.68089 12.40554,-18.82451 27.9627,-18.66287 3.30202,-5.97408 9.5087,-21.24219 11.02088,-24.71514 -34.75649,-0.0833 -35.19897,9.98993 -41.24398,14.94517 -0.0631,-9.45285 -0.0213,-15.12741 -0.0213,-15.12741 l -24.2202,4.16213 z" id="path2502" inkscape:export-filename="/home/thayer/linux/artwork-arch/sample-hangar2.png" inkscape:export-xdpi="90" inkscape:export-ydpi="90" inkscape:connector-curvature="0" />
      <path style="fill:url(#linearGradient5800);fill-opacity:1;fill-rule:evenodd;stroke:none" d="m 548.2688,328.33058 c -0.25696,-0.12068 -13.87938,-15.93419 -41.26638,-16.0589 -25.65249,-0.42638 -54.42578,9.51895 -54.88631,52.5328 0.22457,37.81852 27.6402,52.59809 55.0314,52.88627 29.31292,0.30451 40.97654,-18.32947 41.67615,-18.79124 -3.49762,-3.0321 -16.59792,-16.0131 -16.59792,-16.0131 0,0 -8.18236,11.65102 -24.05802,11.79913 -15.87942,0.1512 -29.68245,-12.27325 -29.87805,-29.60905 -0.20349,-17.33595 12.68881,-26.72821 29.99725,-27.48687 14.98466,-0.003 23.6297,9.67334 23.6297,9.67334 l 16.35218,-18.93238 z" id="path2504" inkscape:export-filename="/home/thayer/linux/artwork-arch/sample-hangar2.png" inkscape:export-xdpi="90" inkscape:export-ydpi="90" sodipodi:nodetypes="ccccccccccc" inkscape:connector-curvature="0" />
      <path id="path2506" d="m 581.8125,278.84375 -25.125,5.90625 0.1875,133.9375 24.75,-4.46875 0.28125,-63.03125 c 0.0529,-6.60927 9.56127,-16.75916 25.4375,-16.4375 15.17973,0.15775 18.57236,10.11767 18.53125,11.375 l 0.4375,72.96875 24.40625,-4.3125 0.0937,-77.375 c 0.1607,-7.44539 -16.30833,-23.16954 -42.78125,-23.28125 -12.58087,0.0202 -19.54815,2.86825 -23.09375,4.96875 -6.06656,4.68565 -12.9998,9.17543 -19.8125,14.90625 6.29809,-8.09099 11.58551,-13.68516 16.75,-17.84375 l -0.0625,-37.3125 z" style="fill:url(#linearGradient5802);fill-opacity:1;fill-rule:evenodd;stroke:none" inkscape:connector-curvature="0" />
    </g>
    <g id="g2508" style="fill:#56b0dd;fill-opacity:1;stroke:none" transform="matrix(0.54109733,0,0.00765714,0.54109733,201.96436,-127.56701)">
      <path style="fill:#56b0dd;fill-opacity:1;fill-rule:evenodd;stroke:none" d="m 400.67581,629.79609 7.68167,-1.91575 -0.92851,91.20792 -7.79574,1.32426 1.04258,-90.61643 z" id="path2510" inkscape:export-filename="/home/thayer/linux/artwork-arch/sample-hangar2.png" inkscape:export-xdpi="90" inkscape:export-ydpi="90" inkscape:connector-curvature="0" />
      <path style="fill:#56b0dd;fill-opacity:1;fill-rule:evenodd;stroke:none" d="m 421.10266,657.01757 6.75064,-2.9867 -0.86808,65.39931 -6.49779,1.33915 0.61523,-63.75176 z m -1.26059,-23.58316 5.47167,-4.41533 4.42261,4.99952 -5.47558,4.53221 -4.4187,-5.1164 z" id="path2512" inkscape:export-filename="/home/thayer/linux/artwork-arch/sample-hangar2.png" inkscape:export-xdpi="90" inkscape:export-ydpi="90" inkscape:connector-curvature="0" />
      <path style="fill:#56b0dd;fill-opacity:1;fill-rule:evenodd;stroke:none" d="m 440.44273,655.82614 7.67755,-1.56201 -0.1573,13.6722 c -0.007,0.58717 4.4194,-15.27364 24.68502,-14.92094 19.67986,0.10952 22.68401,15.34634 22.5291,18.76237 l -0.43759,48.0783 -6.73044,1.45631 0.63316,-47.489 c 0.0974,-1.38684 -2.88144,-13.11441 -16.78906,-13.15754 -13.90509,-0.0404 -23.68364,10.10048 -23.75821,16.57937 l -0.48127,41.83477 -7.80388,2.0313 0.63292,-65.28513 z" id="path2514" inkscape:export-filename="/home/thayer/linux/artwork-arch/sample-hangar2.png" inkscape:export-xdpi="90" inkscape:export-ydpi="90" inkscape:connector-curvature="0" />
      <path style="fill:#56b0dd;fill-opacity:1;fill-rule:evenodd;stroke:none" d="m 561.53301,720.20203 -7.6776,1.56186 0.15737,-13.67198 c 0.007,-0.58742 -4.42201,15.27361 -24.68504,14.92086 -19.67983,-0.10944 -22.68399,-15.34626 -22.52908,-18.76229 l 0.43757,-48.07861 8.15674,-1.64226 -0.54644,47.48988 c -0.0149,1.29682 1.36845,13.29979 15.27604,13.3426 13.90511,0.0405 23.76622,-8.37359 24.01453,-21.04416 l 0.43105,-37.46902 7.5978,-1.93195 -0.63294,65.28507 z" id="path2516" inkscape:export-filename="/home/thayer/linux/artwork-arch/sample-hangar2.png" inkscape:export-xdpi="90" inkscape:export-ydpi="90" inkscape:connector-curvature="0" />
      <path style="fill:#56b0dd;fill-opacity:1;fill-rule:evenodd;stroke:none" d="m 577.45461,655.28678 -5.42715,4.20017 20.19894,26.93328 -22.39092,31.11622 5.63499,4.226 21.04365,-28.8967 20.8779,29.58159 5.32727,-4.20103 -22.37578,-31.62866 18.56963,-25.5775 -5.53193,-4.73429 -16.92109,23.66778 -19.00551,-24.68686 z" id="path2519" inkscape:export-filename="/home/thayer/linux/artwork-arch/sample-hangar2.png" inkscape:export-xdpi="90" inkscape:export-ydpi="90" inkscape:connector-curvature="0" />
    </g>
    <path style="opacity:0.5;fill:url(#linearGradient5820);fill-opacity:1;fill-rule:evenodd;stroke:none" d="m 300.85537,240.15924 c -4.43177,0.0872 -9.35852,0.56624 -14.99626,1.62305 -0.7652,1.56322 -1.21007,3.42977 -1.20721,5.66046 -0.18678,11.75923 8.76588,15.21441 14.87557,15.27796 6.51445,-0.11864 8.96068,-2.90225 10.18081,-3.63513 l 0.0134,3.55459 8.34317,-1.40839 0.0402,-19.66415 c -5.15619,-0.81907 -10.64365,-1.53849 -17.24975,-1.40839 z m 80.6285,1.22062 0.0269,21.67619 9.05407,-1.6365 0.0806,-18.37639 c -3.24833,-0.49696 -6.2747,-1.09836 -9.16151,-1.6633 z m -28.55493,0.11828 c -3.49551,0.96407 -6.72482,1.55605 -9.70582,1.89552 0.0953,13.80188 10.10783,19.19496 20.11235,19.30019 10.71344,0.11131 14.98196,-6.69887 15.23771,-6.86764 -1.27836,-1.10826 -6.07083,-5.8523 -6.07083,-5.8523 0,0 -2.98895,4.25427 -8.79133,4.30835 -5.80377,0.0552 -10.8508,-4.48729 -10.92218,-10.82335 -0.0118,-0.68119 0.0411,-1.33249 0.1401,-1.96077 z m -29.32429,0.95479 -0.0402,20.22753 9.73823,-1.87792 0.0134,-17.18264 c -3.32364,-0.20644 -6.50725,-0.6492 -9.71139,-1.16697 z m -22.57485,0.30847 c 3.46067,0.0475 7.43866,1.75574 7.44441,5.86173 0.0179,3.73461 -4.67206,5.7459 -7.72618,5.71411 -3.05537,-0.0317 -7.11793,-2.40867 -7.13594,-6.04942 0.0585,-3.25453 3.81652,-5.61018 7.41771,-5.52642 z m 114.79263,0.96572 c -3.19411,0.33585 -6.20384,0.49507 -9.0541,0.52323 l 0.1207,18.95326 8.91997,-1.58285 0.0134,-17.89364 z" id="path17137" sodipodi:nodetypes="cccccccccccccccccccccccccccccsccccccc" inkscape:connector-curvature="0" />
    <path style="opacity:0.7;fill:#1793d1;fill-opacity:1;fill-rule:evenodd;stroke:none" d="m 449.63788,238.42892 c -1.47857,0.0626 -2.90938,0.14288 -4.27893,0.24141 l 0.10736,23.9565 4.21178,-1.09997 -0.0671,-22.64196 c -2.9e-4,-0.14863 0.009,-0.30074 0.0269,-0.45598 z m 21.89076,0.18775 0.0134,24.11741 3.63523,-0.79134 -0.12083,-23.12483 c -1.1784,-0.074 -2.35657,-0.14193 -3.52779,-0.20124 z m 9.99315,0.67067 0.0671,14.21825 c -0.0578,1.84844 1.67746,10.09484 12.32705,10.15403 10.96684,0.19089 13.23805,-8.39277 13.23887,-8.07484 l 0.027,7.39075 4.14466,-0.845 -0.0804,-18.65817 c -1.33693,-0.18913 -2.72061,-0.42155 -4.13132,-0.68409 l 0.0134,5.33857 c -0.0374,6.85598 -5.31234,11.40999 -12.83652,11.38805 -7.52586,-0.0231 -8.36845,-6.51482 -8.37007,-7.21647 l -0.027,-12.60865 c -1.45106,-0.1458 -2.90907,-0.27818 -4.37267,-0.40243 z m -43.03053,0.1073 c -1.29538,0.19091 -2.49851,0.40288 -3.5814,0.64381 l 0.0939,22.40052 3.51436,-0.72432 -0.0269,-22.32001 z m -10.65036,2.36078 c -1.42116,0.31098 -2.81324,0.58539 -4.17157,0.83163 l 0.0537,19.66416 4.2118,-0.72435 -0.0805,-19.77144 c -0.005,7.7e-4 -0.009,-7.6e-4 -0.0134,0 z m 104.42403,1.91817 c -1.49785,0.2138 -3.09807,0.38344 -4.81537,0.4962 l -11.6563,16.52543 3.08492,2.28031 11.16018,-15.64011 11.52208,16.01573 2.85695,-2.28027 -12.35374,-17.11566 0.20128,-0.28163 z" id="path17147" inkscape:connector-curvature="0" />
    <text xml:space="preserve" style="font-size:4.83684111px;font-style:normal;font-weight:normal;fill:#87cdde;fill-opacity:1;stroke:none;font-family:DejaVu Sans Mono" x="543.35132" y="218.95879" id="text2529"><tspan sodipodi:role="line" id="tspan2531" x="543.35132" y="218.95879">TM</tspan></text>
    <g id="g5931">
      <g transform="matrix(0.7633492,0,0,0.7633492,131.00542,80.312259)" id="g3931">
        <text xml:space="preserve" style="font-size:72px;font-style:normal;font-variant:normal;font-weight:normal;font-stretch:normal;line-height:125%;letter-spacing:0px;word-spacing:0px;fill:url(#linearGradient5808);fill-opacity:1;stroke:none;font-family:'王漢宗中行書繁';-inkscape-font-specification:'王漢宗中行書繁'" x="544.89703" y="239.96239" id="text3847" sodipodi:linespacing="125%"><tspan sodipodi:role="line" id="tspan3849" x="544.89703" y="239.96239" style="font-size:84px;font-style:normal;font-variant:normal;font-weight:normal;font-stretch:normal;fill:url(#linearGradient5808);fill-opacity:1;font-family:Liberation Sans;-inkscape-font-specification:Liberation Sans">.tw</tspan></text>
        <path style="font-size:72px;font-style:normal;font-variant:normal;font-weight:normal;font-stretch:normal;line-height:125%;letter-spacing:0px;word-spacing:0px;fill:url(#linearGradient5810);fill-opacity:1;stroke:none;font-family:'王漢宗中行書繁';-inkscape-font-specification:'王漢宗中行書繁'" d="m 576.75446,212.30614 c -0.72527,0.0119 -1.43908,0.0555 -2.15625,0.0937 l 0,18.15625 c -10e-6,6.69922 2.93749,10.0625 8.84375,10.0625 2.54295,0 5.03514,-0.34375 7.46875,-1 l 0,-5.4375 c -1.8594,0.38282 -3.26564,0.56251 -4.25,0.5625 -1.72267,10e-6 -2.94533,-0.40234 -3.65625,-1.25 -0.68361,-0.87499 -1.03126,-2.39843 -1.03125,-4.53125 l 0,-16.46875 c -1.75366,-0.1304 -3.50351,-0.21557 -5.21875,-0.1875 z m 70.0625,2.625 c -2.31644,0.54257 -4.73576,1.17114 -7.15625,1.8125 l -2.9375,11.40625 -1.25,5.6875 -1.90625,-7.78125 -1.84375,-7.28125 c -1.87012,0.44859 -3.72807,0.86925 -5.59375,1.21875 l 4.9375,19.96875 8.5625,0 7.1875,-25.03125 z m -49.8125,0.78125 6.78125,24.25 8.53125,0 c 2.08285,-8.10627 3.56167,-13.77956 4.875,-18.9375 -2.00846,0.0691 -3.98509,0.002 -5.90625,-0.25 l -2.65625,10.03125 -0.6875,3.03125 c -0.98439,-4.7578 -1.58986,-7.43749 -1.78125,-8.09375 l -1.6875,-6.75 c -0.4173,-0.1791 -0.80981,-0.38825 -1.21875,-0.59375 -2.07548,-1.04298 -4.17549,-1.93245 -6.25,-2.6875 z m -44.4375,15.28125 0,8.96875 8,0 0,-8.96875 -8,0 z" id="text3847-9" inkscape:connector-curvature="0" />
      </g>
    </g>
  </g>
</svg>
